<svg width="40" height="40" viewBox="0 0 40 40" fill="none" xmlns="http://www.w3.org/2000/svg">
<path d="M25.4532 38.2324V27.6358C25.4532 27.1674 25.2616 26.7182 24.9206 26.387C24.5797 26.0558 24.1172 25.8698 23.635 25.8698H16.3623C15.8801 25.8698 15.4176 26.0558 15.0766 26.387C14.7356 26.7182 14.5441 27.1674 14.5441 27.6358V38.2322C14.5441 38.7005 14.3526 39.1497 14.0116 39.4809C13.6707 39.8121 13.2083 39.9982 12.7261 39.9982L1.81841 40C1.57962 40 1.34317 39.9544 1.12255 39.8656C0.901933 39.7769 0.701471 39.6468 0.532613 39.4828C0.363755 39.3188 0.229809 39.1241 0.138422 38.9098C0.047036 38.6956 1.35268e-08 38.4659 1.53923e-08 38.2339V17.8227C-3.29479e-05 17.5767 0.0528788 17.3333 0.155342 17.1082C0.257806 16.8832 0.407559 16.6814 0.595 16.5159L18.7757 0.459305C19.1104 0.163762 19.5464 0 19.9988 0C20.4511 0 20.8871 0.163762 21.2218 0.459305L39.4048 16.5159C39.5923 16.6814 39.7421 16.8831 39.8446 17.1082C39.9471 17.3333 40 17.5766 40 17.8227V38.2339C40 38.4659 39.953 38.6956 39.8616 38.9098C39.7702 39.1241 39.6362 39.3188 39.4674 39.4828C39.2985 39.6468 39.0981 39.7769 38.8774 39.8656C38.6568 39.9544 38.4204 40 38.1816 40L27.2711 39.9987C26.789 39.9986 26.3266 39.8125 25.9856 39.4813C25.6447 39.1501 25.4532 38.7007 25.4532 38.2324Z" fill="#2742A3"/>
</svg>
