<svg width="275" height="40" viewBox="0 0 275 40" fill="none" xmlns="http://www.w3.org/2000/svg">
<path d="M71.4209 28.9121C71.4209 27.8607 71.0498 27.0566 70.3076 26.5C69.5654 25.931 68.2295 25.3372 66.2998 24.7188C64.3701 24.0879 62.8424 23.4694 61.7168 22.8633C58.6491 21.2057 57.1152 18.973 57.1152 16.165C57.1152 14.7054 57.5234 13.4066 58.3398 12.2686C59.1686 11.1182 60.3499 10.2214 61.8838 9.57812C63.43 8.9349 65.1618 8.61328 67.0791 8.61328C69.0088 8.61328 70.7282 8.96582 72.2373 9.6709C73.7464 10.3636 74.9154 11.347 75.7441 12.6211C76.5853 13.8952 77.0059 15.3424 77.0059 16.9629H71.4395C71.4395 15.7259 71.0498 14.7673 70.2705 14.0869C69.4912 13.3942 68.3965 13.0479 66.9863 13.0479C65.6257 13.0479 64.568 13.3385 63.8135 13.9199C63.0589 14.4889 62.6816 15.2435 62.6816 16.1836C62.6816 17.0618 63.1208 17.7979 63.999 18.3916C64.8896 18.9854 66.1947 19.542 67.9141 20.0615C71.0807 21.014 73.3877 22.1953 74.835 23.6055C76.2822 25.0156 77.0059 26.7721 77.0059 28.875C77.0059 31.2129 76.1214 33.0498 74.3525 34.3857C72.5837 35.7093 70.2025 36.3711 67.209 36.3711C65.1309 36.3711 63.2383 35.9938 61.5312 35.2393C59.8242 34.4723 58.5192 33.4271 57.6162 32.1035C56.7256 30.7799 56.2803 29.2461 56.2803 27.502H61.8652C61.8652 30.4831 63.6465 31.9736 67.209 31.9736C68.5326 31.9736 69.5654 31.7077 70.3076 31.1758C71.0498 30.6315 71.4209 29.877 71.4209 28.9121ZM97.8984 28.708L100.533 15.9238H105.71L100.589 36H96.0986L92.2949 23.3643L88.4912 36H84.0195L78.8984 15.9238H84.0752L86.6914 28.6895L90.3652 15.9238H94.2432L97.8984 28.708ZM117.622 36.3711C114.678 36.3711 112.278 35.4681 110.423 33.6621C108.58 31.8561 107.658 29.4502 107.658 26.4443V25.9248C107.658 23.9085 108.048 22.1087 108.827 20.5254C109.606 18.9297 110.707 17.7051 112.13 16.8516C113.565 15.9857 115.198 15.5527 117.028 15.5527C119.774 15.5527 121.933 16.4186 123.504 18.1504C125.087 19.8822 125.879 22.3376 125.879 25.5166V27.7061H113.095C113.268 29.0173 113.787 30.0687 114.653 30.8604C115.532 31.652 116.639 32.0479 117.975 32.0479C120.04 32.0479 121.655 31.2995 122.817 29.8027L125.452 32.7529C124.648 33.891 123.56 34.7816 122.187 35.4248C120.813 36.0557 119.292 36.3711 117.622 36.3711ZM117.01 19.8945C115.946 19.8945 115.08 20.2533 114.412 20.9707C113.757 21.6882 113.336 22.7148 113.15 24.0508H120.609V23.624C120.585 22.4365 120.263 21.5212 119.645 20.8779C119.026 20.2223 118.148 19.8945 117.01 19.8945ZM138.181 36.3711C135.237 36.3711 132.837 35.4681 130.981 33.6621C129.138 31.8561 128.217 29.4502 128.217 26.4443V25.9248C128.217 23.9085 128.606 22.1087 129.386 20.5254C130.165 18.9297 131.266 17.7051 132.688 16.8516C134.123 15.9857 135.756 15.5527 137.587 15.5527C140.333 15.5527 142.492 16.4186 144.062 18.1504C145.646 19.8822 146.438 22.3376 146.438 25.5166V27.7061H133.653C133.826 29.0173 134.346 30.0687 135.212 30.8604C136.09 31.652 137.197 32.0479 138.533 32.0479C140.599 32.0479 142.213 31.2995 143.376 29.8027L146.011 32.7529C145.207 33.891 144.118 34.7816 142.745 35.4248C141.372 36.0557 139.851 36.3711 138.181 36.3711ZM137.568 19.8945C136.505 19.8945 135.639 20.2533 134.971 20.9707C134.315 21.6882 133.895 22.7148 133.709 24.0508H141.168V23.624C141.143 22.4365 140.822 21.5212 140.203 20.8779C139.585 20.2223 138.706 19.8945 137.568 19.8945ZM155.919 10.9883V15.9238H159.352V19.8574H155.919V29.877C155.919 30.6191 156.061 31.151 156.346 31.4727C156.63 31.7943 157.174 31.9551 157.979 31.9551C158.572 31.9551 159.098 31.9118 159.556 31.8252V35.8887C158.504 36.2103 157.422 36.3711 156.309 36.3711C152.548 36.3711 150.631 34.4723 150.557 30.6748V19.8574H147.625V15.9238H150.557V10.9883H155.919ZM194.142 36H188.575V24.4219H177.721V36H172.154V8.98438H177.721V19.9316H188.575V8.98438H194.142V36ZM197.834 25.7764C197.834 23.7848 198.217 22.0098 198.984 20.4512C199.751 18.8926 200.852 17.6865 202.287 16.833C203.734 15.9795 205.41 15.5527 207.315 15.5527C210.024 15.5527 212.232 16.3815 213.939 18.0391C215.659 19.6966 216.618 21.9479 216.815 24.793L216.853 26.166C216.853 29.2461 215.993 31.7201 214.273 33.5879C212.554 35.4434 210.247 36.3711 207.353 36.3711C204.458 36.3711 202.145 35.4434 200.413 33.5879C198.694 31.7324 197.834 29.209 197.834 26.0176V25.7764ZM203.196 26.166C203.196 28.071 203.555 29.5306 204.272 30.5449C204.99 31.5469 206.017 32.0479 207.353 32.0479C208.651 32.0479 209.666 31.5531 210.396 30.5635C211.125 29.5615 211.49 27.9658 211.49 25.7764C211.49 23.9085 211.125 22.4613 210.396 21.4346C209.666 20.4079 208.639 19.8945 207.315 19.8945C206.004 19.8945 204.99 20.4079 204.272 21.4346C203.555 22.4489 203.196 24.026 203.196 26.166ZM225.184 15.9238L225.351 18.1689C226.773 16.4248 228.697 15.5527 231.121 15.5527C233.706 15.5527 235.481 16.5732 236.446 18.6143C237.856 16.5732 239.867 15.5527 242.477 15.5527C244.654 15.5527 246.274 16.1898 247.338 17.4639C248.402 18.7256 248.934 20.6305 248.934 23.1787V36H243.553V23.1973C243.553 22.0592 243.33 21.2305 242.885 20.7109C242.439 20.179 241.654 19.9131 240.528 19.9131C238.92 19.9131 237.807 20.68 237.188 22.2139L237.207 36H231.845V23.2158C231.845 22.0531 231.616 21.2119 231.158 20.6924C230.701 20.1729 229.921 19.9131 228.82 19.9131C227.299 19.9131 226.198 20.5439 225.518 21.8057V36H220.155V15.9238H225.184ZM262.312 36.3711C259.368 36.3711 256.968 35.4681 255.112 33.6621C253.269 31.8561 252.348 29.4502 252.348 26.4443V25.9248C252.348 23.9085 252.737 22.1087 253.517 20.5254C254.296 18.9297 255.397 17.7051 256.819 16.8516C258.254 15.9857 259.887 15.5527 261.718 15.5527C264.464 15.5527 266.622 16.4186 268.193 18.1504C269.777 19.8822 270.568 22.3376 270.568 25.5166V27.7061H257.784C257.957 29.0173 258.477 30.0687 259.343 30.8604C260.221 31.652 261.328 32.0479 262.664 32.0479C264.73 32.0479 266.344 31.2995 267.507 29.8027L270.142 32.7529C269.338 33.891 268.249 34.7816 266.876 35.4248C265.503 36.0557 263.981 36.3711 262.312 36.3711ZM261.699 19.8945C260.635 19.8945 259.77 20.2533 259.102 20.9707C258.446 21.6882 258.025 22.7148 257.84 24.0508H265.299V23.624C265.274 22.4365 264.952 21.5212 264.334 20.8779C263.715 20.2223 262.837 19.8945 261.699 19.8945Z" fill="#2742A3"/>
<path d="M25.4532 38.2324V27.6358C25.4532 27.1674 25.2616 26.7182 24.9206 26.387C24.5797 26.0558 24.1172 25.8698 23.635 25.8698H16.3623C15.8801 25.8698 15.4176 26.0558 15.0766 26.387C14.7356 26.7182 14.5441 27.1674 14.5441 27.6358V38.2322C14.5441 38.7005 14.3526 39.1497 14.0116 39.4809C13.6707 39.8121 13.2083 39.9982 12.7261 39.9982L1.81841 40C1.57962 40 1.34317 39.9544 1.12255 39.8656C0.901933 39.7769 0.701471 39.6468 0.532613 39.4828C0.363755 39.3188 0.229809 39.1241 0.138422 38.9098C0.047036 38.6956 1.35268e-08 38.4659 1.53923e-08 38.2339V17.8227C-3.29479e-05 17.5767 0.0528788 17.3333 0.155342 17.1082C0.257806 16.8832 0.407559 16.6814 0.595 16.5159L18.7757 0.459305C19.1104 0.163762 19.5464 0 19.9988 0C20.4511 0 20.8871 0.163762 21.2218 0.459305L39.4048 16.5159C39.5923 16.6814 39.7421 16.8831 39.8446 17.1082C39.9471 17.3333 40 17.5766 40 17.8227V38.2339C40 38.4659 39.953 38.6956 39.8616 38.9098C39.7702 39.1241 39.6362 39.3188 39.4674 39.4828C39.2985 39.6468 39.0981 39.7769 38.8774 39.8656C38.6568 39.9544 38.4204 40 38.1816 40L27.2711 39.9987C26.789 39.9986 26.3266 39.8125 25.9856 39.4813C25.6447 39.1501 25.4532 38.7007 25.4532 38.2324Z" fill="#2742A3"/>
</svg>
